{"title":"The.Man.Of.Steel.2013.CAM.XViD-FANTA","uid":8586632,"size":775499870,"categoryP":"video","categoryS":"movies","magnet":"?xt=urn:btih:76a4578700eaab14e0ad29a1a34f6401d78b7113&amp;dn=The.Man.Of.Steel.2013.CAM.XViD-FANTA&amp;tr=udp%3A%2F%2Ftracker.openbittorrent.com%3A80&amp;tr=udp%3A%2F%2Fopen.demonii.com%3A1337&amp;tr=udp%3A%2F%2Ftracker.coppersurfer.tk%3A6969&amp;tr=udp%3A%2F%2Fexodus.desync.com%3A6969","seeders":1,"leechers":0,"uploader":"xxxlavalxxx","files":-1,"time":1371549147,"description":" &lt;a href=&quot;http://www.imdb.com/title/tt0770828/&quot; rel=&quot;nofollow&quot; target=&quot;_NEW&quot;&gt;http://www.imdb.com/title/tt0770828/&lt;/a&gt;\n\n\nA young boy learns that he has extraordinary powers and is not of this Earth. As a young man, he journeys to discover where he came from and what he was sent here to do. But the hero in him must emerge if he is to save the world from annihilation and become the symbol of hope for all mankind. \n\n\n\nDirector:\n Zack Snyder \n\nWriters:\n David S. Goyer (screenplay), David S. Goyer (story)\n\nStars:\n Henry Cavill, Amy Adams, Michael Shannon \n\nGenres:\n  Action |  Adventure |  Fantasy |  Sci-Fi \n\nCountry:\n USA | Canada | UK \n\nLanguage:\n English \n\n\n\nFormat                                   : AVI\nFormat/Info                              : Audio Video Interleave\nFile size                                : 723 MiB\nDuration                                 : 2h 12mn\nOverall bit rate                         : 762 Kbps\nWriting application                      : VirtualDubMod 1.5.10.2 (build 2542/release)\nWriting library                          : VirtualDubMod build 2542/release\n\nVideo\nID                                       : 0\nFormat                                   : MPEG-4 Visual\nFormat profile                           : Advanced Simple@L5\nFormat settings, BVOP                    : 1\nFormat settings, QPel                    : No\nFormat settings, GMC                     : No warppoints\nFormat settings, Matrix                  : Default (H.263)\nMuxing mode                              : Packed bitstream\nCodec ID                                 : XVID\nCodec ID/Hint                            : XviD\nDuration                                 : 2h 12mn\nBit rate                                 : 561 Kbps\nWidth                                    : 640 pixels\nHeight                                   : 268 pixels\nDisplay aspect ratio                     : 2.40:1\nFrame rate                               : 29.970 fps\nColor space                              : YUV\nChroma subsampling                       : 4:2:0\nBit depth                                : 8 bits\nScan type                                : Progressive\nCompression mode                         : Lossy\nBits/(Pixel*Frame)                       : 0.109\nStream size                              : 532 MiB (74%)\nWriting library                          : XviD 64\n\nAudio\nID                                       : 1\nFormat                                   : AC-3\nFormat/Info                              : Audio Coding 3\nMode extension                           : CM (complete main)\nFormat settings, Endianness              : Big\nCodec ID                                 : 2000\nDuration                                 : 2h 12mn\nBit rate mode                            : Constant\nBit rate                                 : 192 Kbps\nChannel(s)                               : 2 channels\nChannel positions                        : Front: L R\nSampling rate                            : 48.0 KHz\nBit depth                                : 16 bits\nCompression mode                         : Lossy\nStream size                              : 182 MiB (25%)\nAlignment                                : Split accross interleaves\nInterleave, duration                     : 64 ms (1.92 video frames)\nInterleave, preload duration             : 500 ms\n\n\n\nposter\n\n\n    &lt;a href=&quot;\thttp://addpix.net/viewer.php?file=95103888035509284090.jpg&quot; rel=&quot;nofollow&quot; target=&quot;_NEW&quot;&gt;\thttp://addpix.net/viewer.php?file=95103888035509284090.jpg&lt;/a&gt;\n\n\n\ninfo\n\n\n    &lt;a href=&quot;\thttp://addpix.net/viewer.php?file=64528312906783129457.png&quot; rel=&quot;nofollow&quot; target=&quot;_NEW&quot;&gt;\thttp://addpix.net/viewer.php?file=64528312906783129457.png&lt;/a&gt;\n\n\nscreens\n\n\n\n    &lt;a href=&quot;\thttp://addpix.net/viewer.php?file=86497074309227073879.jpg&quot; rel=&quot;nofollow&quot; target=&quot;_NEW&quot;&gt;\thttp://addpix.net/viewer.php?file=86497074309227073879.jpg&lt;/a&gt;\n    &lt;a href=&quot;\thttp://addpix.net/viewer.php?file=34885524178245392386.jpg&quot; rel=&quot;nofollow&quot; target=&quot;_NEW&quot;&gt;\thttp://addpix.net/viewer.php?file=34885524178245392386.jpg&lt;/a&gt;\n    &lt;a href=&quot;\thttp://addpix.net/viewer.php?file=07992678380823414419.jpg&quot; rel=&quot;nofollow&quot; target=&quot;_NEW&quot;&gt;\thttp://addpix.net/viewer.php?file=07992678380823414419.jpg&lt;/a&gt;\n    &lt;a href=&quot;\thttp://addpix.net/viewer.php?file=87465504647593906615.jpg&quot; rel=&quot;nofollow&quot; target=&quot;_NEW&quot;&gt;\thttp://addpix.net/viewer.php?file=87465504647593906615.jpg&lt;/a&gt;\n    &lt;a href=&quot;\thttp://addpix.net/viewer.php?file=48733084590051081334.jpg&quot; rel=&quot;nofollow&quot; target=&quot;_NEW&quot;&gt;\thttp://addpix.net/viewer.php?file=48733084590051081334.jpg&lt;/a&gt;\n    &lt;a href=&quot;\thttp://addpix.net/viewer.php?file=52332136808438424971.jpg&quot; rel=&quot;nofollow&quot; target=&quot;_NEW&quot;&gt;\thttp://addpix.net/viewer.php?file=52332136808438424971.jpg&lt;/a&gt;","torrent":{"xt":"urn:btih:76a4578700eaab14e0ad29a1a34f6401d78b7113","amp;dn":"The.Man.Of.Steel.2013.CAM.XViD-FANTA","amp;tr":["udp%3A%2F%2Ftracker.openbittorrent.com%3A80","udp%3A%2F%2Fopen.demonii.com%3A1337","udp%3A%2F%2Ftracker.coppersurfer.tk%3A6969","udp%3A%2F%2Fexodus.desync.com%3A6969"],"infoHash":"76a4578700eaab14e0ad29a1a34f6401d78b7113","infoHashBuffer":{"type":"Buffer","data":[118,164,87,135,0,234,171,20,224,173,41,161,163,79,100,1,215,139,113,19]},"announce":[],"urlList":[]}}